<svg width="96" height="30" viewBox="0 0 96 30" fill="none" xmlns="http://www.w3.org/2000/svg">
<g clip-path="url(#clip0)">
<path d="M1.00601 30C0.739931 29.9977 0.485396 29.8908 0.297241 29.7026C0.109086 29.5145 0.00234906 29.2602 0 28.9941V25.6104L9.70001 12.436H0.365997V10.3359C0.382041 9.47611 0.737081 8.65743 1.35382 8.05811C1.97056 7.45878 2.79907 7.12764 3.659 7.13623H16.192C16.3426 7.12899 16.4932 7.15152 16.6349 7.20312C16.7766 7.25473 16.9066 7.33411 17.0173 7.43652C17.128 7.53893 17.2172 7.66254 17.2796 7.7998C17.3421 7.93707 17.3765 8.08559 17.381 8.23633V11.5303L7.77499 24.7031H17.289C17.5315 24.7039 17.7638 24.8005 17.9351 24.9722C18.1064 25.1438 18.2027 25.3766 18.203 25.6191V26.8081C18.187 27.6681 17.8318 28.4871 17.2148 29.0864C16.5979 29.6858 15.7691 30.0172 14.909 30.0083L1.00601 30ZM32.119 29.915C30.5075 29.8967 28.9161 29.5554 27.4389 28.9111C25.9618 28.2668 24.6288 27.3326 23.519 26.1641C22.3747 25.0648 21.4678 23.7426 20.8541 22.2793C20.2405 20.816 19.9331 19.2429 19.951 17.6562C19.9359 16.0128 20.2614 14.384 20.907 12.8726C21.5525 11.3611 22.5042 9.99945 23.702 8.87402C24.8837 7.66604 26.3139 6.72928 27.8935 6.12891C29.4731 5.52853 31.1643 5.27883 32.85 5.39697C34.4763 5.40575 36.0841 5.7427 37.5772 6.38721C39.0704 7.03171 40.4182 7.97052 41.54 9.14795C42.6936 10.2311 43.5949 11.5551 44.1799 13.0254C44.7649 14.4957 45.0192 16.0766 44.925 17.6562V26.896C44.9221 27.2513 44.8484 27.6027 44.7083 27.9292C44.5683 28.2557 44.3646 28.5509 44.1091 28.7979C43.8537 29.0448 43.5517 29.2382 43.2206 29.3672C42.8896 29.4962 42.5362 29.5584 42.181 29.5493H39.071V28.085C37.13 29.3177 34.87 29.954 32.571 29.915H32.119ZM27.911 12.8081C27.2529 13.3899 26.7314 14.1099 26.3836 14.9165C26.0358 15.7231 25.8704 16.5962 25.899 17.4741C25.8747 18.3487 26.0238 19.2195 26.3377 20.0361C26.6517 20.8528 27.1242 21.5988 27.728 22.2319C28.9218 23.4998 30.5624 24.2531 32.302 24.332C33.202 24.3902 34.1037 24.2482 34.9422 23.916C35.7806 23.5838 36.535 23.0699 37.151 22.4111C37.8068 21.7694 38.3237 20.9997 38.6698 20.1499C39.0159 19.3001 39.1838 18.3885 39.163 17.4712C39.1728 16.6095 38.9984 15.7556 38.6514 14.9668C38.3044 14.178 37.7928 13.4721 37.151 12.897C36.606 12.2427 35.919 11.7214 35.1421 11.3726C34.3653 11.0237 33.5191 10.8569 32.668 10.8843C31.7865 10.8687 30.9108 11.0307 30.0935 11.3613C29.2761 11.6919 28.5338 12.1841 27.911 12.8081V12.8081ZM67.511 28.9512C67.2448 28.9491 66.99 28.8425 66.8016 28.6543C66.6132 28.4661 66.5064 28.2116 66.504 27.9453V24.5601L76.204 11.3862H66.873V9.28613C66.8893 8.42622 67.2446 7.6076 67.8615 7.0083C68.4783 6.40901 69.307 6.07735 70.167 6.08594H82.7C82.8506 6.0787 83.0012 6.10172 83.1429 6.15332C83.2846 6.20492 83.4146 6.28431 83.5253 6.38672C83.636 6.48913 83.7251 6.61274 83.7876 6.75C83.85 6.88726 83.8845 7.0353 83.889 7.18604V10.48L74.283 23.6533H83.797C84.0395 23.6541 84.2718 23.7507 84.4431 23.9224C84.6144 24.094 84.7107 24.3268 84.711 24.5693V25.7583C84.695 26.6181 84.3399 27.4368 83.7232 28.0361C83.1064 28.6355 82.2779 28.9666 81.418 28.958L67.511 28.9512ZM47.559 28.9512C47.2928 28.9488 47.0382 28.8419 46.8499 28.6538C46.6616 28.4657 46.5546 28.2115 46.552 27.9453V24.5601L56.252 11.3862H46.92V9.28613C46.9363 8.42622 47.2915 7.6076 47.9084 7.0083C48.5253 6.40901 49.354 6.07735 50.214 6.08594H62.747C62.8976 6.0787 63.0482 6.10172 63.1899 6.15332C63.3316 6.20492 63.4616 6.28431 63.5723 6.38672C63.683 6.48913 63.7721 6.61274 63.8346 6.75C63.897 6.88726 63.9315 7.0353 63.936 7.18604V10.48L54.33 23.6533H63.844C64.0867 23.6538 64.3193 23.7502 64.4908 23.9219C64.6623 24.0936 64.7587 24.3267 64.759 24.5693V25.7583C64.7427 26.6182 64.3874 27.4368 63.7705 28.0361C63.1536 28.6354 62.325 28.9666 61.465 28.958L47.559 28.9512ZM88.032 3.68115C88.032 2.70516 88.4197 1.76924 89.1099 1.0791C89.8 0.388968 90.736 0.000976563 91.712 0.000976562C92.6878 0.00124173 93.6236 0.388996 94.3135 1.0791C95.0034 1.76921 95.391 2.70533 95.391 3.68115C95.3907 4.65671 95.003 5.59201 94.3131 6.28174C93.6232 6.97147 92.6876 7.35889 91.712 7.35889C90.7364 7.35862 89.8009 6.97117 89.1112 6.28125C88.4215 5.59133 88.034 4.65573 88.034 3.68018L88.032 3.68115ZM88.441 3.68115C88.4413 4.54824 88.7859 5.37965 89.3991 5.99268C90.0123 6.6057 90.8439 6.9502 91.711 6.9502C92.5781 6.9502 93.4097 6.6057 94.0229 5.99268C94.6361 5.37965 94.9808 4.54824 94.981 3.68115C94.9811 3.25165 94.8967 2.82605 94.7324 2.4292C94.5681 2.03235 94.3273 1.67192 94.0236 1.36816C93.7199 1.06441 93.3594 0.823575 92.9626 0.65918C92.5658 0.494784 92.1405 0.410156 91.711 0.410156C90.8442 0.410951 90.0131 0.755523 89.4004 1.36865C88.7876 1.98178 88.4433 2.81335 88.443 3.68018L88.441 3.68115ZM92.605 5.80127L91.198 4.10107H91.185V5.47607C91.191 5.54086 91.1829 5.60607 91.1614 5.66748C91.14 5.72889 91.1055 5.78509 91.0605 5.83203C91.0154 5.87897 90.9608 5.91546 90.9004 5.93945C90.8399 5.96345 90.775 5.97447 90.71 5.97119C90.645 5.97447 90.5801 5.96345 90.5197 5.93945C90.4592 5.91546 90.4046 5.87897 90.3595 5.83203C90.3145 5.78509 90.2801 5.72889 90.2586 5.66748C90.2371 5.60607 90.2291 5.54086 90.235 5.47607V1.91406C90.2279 1.84797 90.2356 1.78103 90.2575 1.71826C90.2794 1.6555 90.315 1.59856 90.3617 1.55127C90.4084 1.50398 90.4651 1.4675 90.5276 1.44482C90.5901 1.42214 90.6568 1.4136 90.723 1.41992H91.838C92.814 1.41992 93.417 1.85803 93.417 2.85303C93.4095 3.16432 93.2843 3.46141 93.0667 3.68408C92.849 3.90675 92.5551 4.03864 92.244 4.05322L93.321 5.20703C93.3978 5.28011 93.4433 5.38041 93.448 5.48633C93.4488 5.61359 93.3996 5.73586 93.3109 5.82715C93.2222 5.91844 93.1012 5.97124 92.974 5.97412C92.9039 5.97317 92.8349 5.95727 92.7715 5.92725C92.7082 5.89722 92.6521 5.85395 92.607 5.80029L92.605 5.80127ZM91.185 3.41211H91.837C91.9141 3.41954 91.9919 3.41011 92.0651 3.38477C92.1383 3.35942 92.2051 3.31866 92.2611 3.26514C92.3171 3.21161 92.3609 3.14669 92.3896 3.07471C92.4182 3.00273 92.431 2.9255 92.427 2.84814C92.4313 2.77097 92.4187 2.69387 92.39 2.62207C92.3614 2.55027 92.3175 2.48524 92.2614 2.43213C92.2052 2.37902 92.1382 2.33901 92.0649 2.31445C91.9916 2.28989 91.9138 2.2815 91.837 2.29004H91.185V3.41211Z" fill="white"/>
</g>
<defs>
<clipPath id="clip0">
<rect width="95.392" height="30" fill="white"/>
</clipPath>
</defs>
</svg>
